<?xml version="1.0" encoding="UTF-8"?>
<svg id="diffsync" xmlns="http://www.w3.org/2000/svg" xmlns:xlink="http://www.w3.org/1999/xlink" viewBox="0 0 400 287">
  <defs>
    <style>
      .cls-1, .cls-2 {
        fill: none;
      }

      .cls-3 {
        clip-path: url(#clippath);
      }

      .cls-4 {
        fill: #e6e6e6;
      }

      .cls-5 {
        fill: #f04e23;
      }

      .cls-6 {
        fill: #2ac3e9;
      }

      .cls-2 {
        stroke: #e6e6e6;
        stroke-linecap: round;
        stroke-miterlimit: 10;
        stroke-width: 4px;
      }
    </style>
    <clipPath id="clippath">
      <rect class="cls-1" x="234.91" y="61.41" width="165.09" height="165.09"/>
    </clipPath>
  </defs>
  <g>
    <polygon class="cls-5" points="70.7 167.71 129.81 108.38 106.23 84.71 82.64 108.38 94.38 120.15 35.3 179.49 58.85 203.17 82.43 179.49 70.7 167.71"/>
    <polygon class="cls-5" points="0 144.06 59.11 84.71 82.67 108.37 23.57 167.73 0 144.06"/>
    <polygon class="cls-5" points="82.42 179.53 141.53 120.18 165.09 143.85 105.99 203.2 82.42 179.53"/>
  </g>
  <g class="cls-3">
    <polygon class="cls-6" points="338.73 171.36 338.73 94.93 378.67 171.36 338.73 171.36"/>
    <polygon class="cls-6" points="338.73 61.29 305.11 94.93 298.41 101.62 256.2 143.84 338.73 226.39 338.73 171.36 298.81 171.36 338.73 94.93 338.73 61.29"/>
  </g>
  <g>
    <line class="cls-5" x1="167" y1="144" x2="255" y2="143.99"/>
    <g>
      <line class="cls-2" x1="167" y1="144" x2="226.3" y2="143.99"/>
      <polygon class="cls-4" points="220.46 163.94 255 143.99 220.46 124.05 220.46 163.94"/>
    </g>
  </g>
</svg>